<svg xmlns="http://www.w3.org/2000/svg" xmlns:xlink="http://www.w3.org/1999/xlink" width="500" zoomAndPan="magnify" viewBox="0 0 375 374.999991" height="500" preserveAspectRatio="xMidYMid meet" version="1.0"><defs><g/><clipPath id="598de689f3"><path d="M 134.824219 98 L 230 98 L 230 192.300781 L 134.824219 192.300781 Z M 134.824219 98 " clip-rule="nonzero"/></clipPath></defs><g fill="#092a0b" fill-opacity="1"><g transform="translate(96.525474, 227.013969)"><g><path d="M 0 -26.972656 C 0 -26.738281 0 -26.460938 0 -26.179688 C 0.09375 -26.085938 0.28125 -25.992188 0.375 -25.898438 C 0.886719 -24.917969 1.726562 -24.734375 2.707031 -24.964844 C 3.171875 -25.058594 3.59375 -25.199219 4.058594 -25.292969 C 5.179688 -25.480469 6.300781 -25.757812 7.464844 -25.664062 C 7.464844 -25.105469 7.511719 -24.59375 7.464844 -24.078125 C 7.375 -21.371094 7.234375 -18.621094 7.140625 -15.914062 C 7 -12.414062 6.90625 -8.960938 6.71875 -5.507812 C 6.671875 -4.199219 7.046875 -2.988281 7.558594 -1.820312 C 7.933594 -0.886719 8.632812 -0.28125 9.660156 -0.1875 C 10.78125 -0.09375 11.621094 -0.511719 12.179688 -1.445312 C 12.785156 -2.425781 13.253906 -3.5 13.300781 -4.667969 C 13.394531 -7.839844 13.578125 -10.964844 13.484375 -14.140625 C 13.347656 -17.3125 13.253906 -20.53125 12.878906 -23.707031 C 12.785156 -24.5 12.691406 -25.292969 12.597656 -26.085938 C 12.785156 -26.132812 12.925781 -26.179688 13.066406 -26.179688 C 14 -26.226562 14.933594 -26.273438 15.867188 -26.273438 C 17.265625 -26.320312 18.710938 -26.320312 20.113281 -26.367188 C 21 -26.414062 21.746094 -26.738281 22.351562 -27.390625 C 23.050781 -28.1875 23.144531 -29.257812 22.585938 -30.144531 C 22.121094 -30.9375 21.371094 -31.40625 20.484375 -31.453125 C 19.507812 -31.5 18.574219 -31.546875 17.59375 -31.5 C 15.632812 -31.40625 13.625 -31.265625 11.667969 -31.078125 C 10.828125 -30.984375 9.984375 -30.753906 9.144531 -30.613281 C 6.953125 -30.144531 4.714844 -29.773438 2.660156 -28.933594 C 1.679688 -28.558594 0.746094 -28.140625 0.28125 -27.160156 C 0.234375 -27.066406 0.09375 -27.019531 0 -26.972656 Z M 10.828125 -1.304688 C 10.03125 -1.121094 9.566406 -1.398438 9.101562 -1.726562 C 8.351562 -2.285156 7.652344 -4.246094 7.980469 -5.785156 C 8.121094 -5.554688 8.214844 -5.414062 8.257812 -5.273438 C 8.398438 -4.851562 8.539062 -4.433594 8.679688 -4.011719 C 8.914062 -3.035156 9.425781 -2.238281 10.359375 -1.773438 C 10.5 -1.679688 10.59375 -1.492188 10.828125 -1.304688 Z M 18.945312 -27.253906 C 19.644531 -27.625 20.253906 -27.8125 20.71875 -28.230469 C 21.140625 -28.558594 21.417969 -29.117188 21.792969 -29.585938 C 22.121094 -29.257812 22.121094 -28.839844 21.652344 -28.1875 C 21 -27.253906 20.019531 -26.878906 18.945312 -27.253906 Z M 4.011719 -25.992188 C 3.265625 -25.292969 2.101562 -25.339844 1.445312 -25.945312 C 0.933594 -26.414062 0.886719 -27.019531 1.398438 -27.625 C 1.492188 -27.4375 1.585938 -27.300781 1.585938 -27.160156 C 1.679688 -26.460938 2.148438 -26.179688 2.753906 -26.085938 C 3.171875 -26.039062 3.59375 -26.039062 4.011719 -25.992188 Z M 4.011719 -25.992188 "/></g></g></g><g fill="#092a0b" fill-opacity="1"><g transform="translate(121.444078, 227.013969)"><g><path d="M 9.378906 -11.757812 C 10.21875 -12.414062 11.058594 -12.972656 11.714844 -13.671875 C 13.441406 -15.398438 13.90625 -17.453125 13.347656 -19.785156 C 12.972656 -21.234375 12.179688 -22.445312 11.011719 -23.425781 C 9.660156 -24.59375 8.074219 -25.246094 6.300781 -25.339844 C 4.804688 -25.433594 3.359375 -25.011719 1.914062 -24.6875 C 0.699219 -24.40625 0 -23.378906 0 -22.164062 C 0.046875 -21.464844 0.140625 -20.765625 0.1875 -20.066406 C 0.234375 -18.386719 0.234375 -16.660156 0.28125 -14.980469 C 0.28125 -14.28125 0.28125 -13.578125 0.28125 -12.878906 C 0.234375 -11.757812 0.140625 -10.640625 0.09375 -9.566406 C 0.046875 -8.585938 -0.046875 -7.652344 0.046875 -6.71875 C 0.09375 -5.691406 1.074219 -4.804688 2.101562 -4.621094 C 3.125 -4.480469 4.152344 -5.039062 4.621094 -6.019531 C 4.898438 -6.578125 4.898438 -7.234375 4.898438 -7.839844 C 4.945312 -8.398438 5.039062 -8.960938 5.085938 -9.519531 C 5.273438 -9.425781 5.367188 -9.332031 5.414062 -9.238281 C 5.878906 -8.304688 6.253906 -7.328125 6.765625 -6.441406 C 7.328125 -5.554688 7.980469 -4.714844 8.679688 -3.964844 C 9.191406 -3.40625 9.941406 -3.035156 10.546875 -2.566406 C 10.964844 -2.285156 11.386719 -2.191406 11.851562 -2.191406 C 12.644531 -2.191406 13.207031 -2.566406 13.53125 -3.265625 C 13.90625 -3.917969 13.90625 -4.574219 13.441406 -5.179688 C 13.160156 -5.554688 12.785156 -5.832031 12.507812 -6.160156 C 11.105469 -7.886719 10.21875 -9.847656 9.378906 -11.757812 Z M 5.085938 -16.007812 C 4.945312 -17.6875 4.804688 -19.320312 4.667969 -21 C 5.785156 -21.277344 7.511719 -20.671875 8.167969 -19.597656 C 8.445312 -19.226562 8.679688 -18.757812 8.679688 -18.292969 C 8.726562 -17.964844 8.492188 -17.546875 8.214844 -17.3125 C 7.328125 -16.519531 6.347656 -16.097656 5.085938 -16.007812 Z M 9.285156 -20.71875 C 9.425781 -20.578125 9.566406 -20.394531 9.707031 -20.253906 C 10.453125 -18.898438 9.847656 -16.894531 8.492188 -16.144531 C 8.398438 -16.097656 8.257812 -16.144531 8.121094 -16.097656 C 8.167969 -16.238281 8.167969 -16.378906 8.257812 -16.472656 C 8.492188 -16.800781 8.773438 -17.125 9.007812 -17.5 C 9.613281 -18.386719 9.660156 -19.320312 9.238281 -20.300781 C 9.191406 -20.394531 9.191406 -20.53125 9.144531 -20.625 C 9.191406 -20.671875 9.238281 -20.671875 9.285156 -20.71875 Z M 9.285156 -5.644531 C 9.472656 -5.460938 9.707031 -5.273438 9.941406 -5.085938 C 10.59375 -4.527344 11.292969 -4.011719 12.132812 -3.78125 C 12.273438 -3.734375 12.414062 -3.546875 12.507812 -3.453125 C 12.367188 -3.359375 12.179688 -3.171875 12.039062 -3.21875 C 11.621094 -3.3125 11.152344 -3.359375 10.871094 -3.59375 C 10.265625 -4.105469 9.753906 -4.714844 9.238281 -5.320312 C 9.191406 -5.367188 9.191406 -5.507812 9.191406 -5.601562 C 9.191406 -5.601562 9.238281 -5.644531 9.285156 -5.644531 Z M 1.121094 -8.960938 C 1.167969 -8.773438 1.261719 -8.679688 1.261719 -8.539062 C 1.351562 -7.511719 1.820312 -6.765625 2.707031 -6.253906 C 2.847656 -6.160156 2.894531 -6.019531 2.941406 -5.878906 C 2.800781 -5.832031 2.660156 -5.738281 2.566406 -5.785156 C 2.285156 -5.832031 2.007812 -5.925781 1.820312 -6.066406 C 1.074219 -6.71875 0.792969 -7.558594 0.839844 -8.539062 C 0.886719 -8.585938 0.886719 -8.679688 0.933594 -8.726562 C 0.933594 -8.773438 0.980469 -8.820312 1.121094 -8.960938 Z M 1.304688 -21.558594 C 1.261719 -21.699219 1.167969 -21.792969 1.121094 -21.933594 C 0.980469 -22.632812 1.492188 -23.707031 2.148438 -24.03125 C 2.238281 -24.078125 2.425781 -24.03125 2.566406 -24.03125 C 2.519531 -23.890625 2.519531 -23.753906 2.425781 -23.660156 C 1.867188 -23.191406 1.679688 -22.585938 1.539062 -21.933594 C 1.492188 -21.839844 1.492188 -21.699219 1.445312 -21.605469 C 1.398438 -21.605469 1.351562 -21.558594 1.304688 -21.558594 Z M 1.304688 -21.558594 "/></g></g></g><g fill="#092a0b" fill-opacity="1"><g transform="translate(137.21653, 227.013969)"><g><path d="M 15.398438 -10.3125 C 15.351562 -10.3125 15.351562 -10.3125 15.351562 -10.3125 C 15.304688 -10.871094 15.304688 -11.433594 15.257812 -11.992188 C 15.074219 -13.207031 14.839844 -14.417969 14.699219 -15.679688 C 14.558594 -17.40625 14.140625 -19.132812 13.578125 -20.8125 C 13.160156 -22.027344 12.507812 -23.050781 11.574219 -23.847656 C 10.828125 -24.5 9.941406 -24.871094 9.007812 -24.824219 C 7.464844 -24.734375 6.300781 -23.9375 5.460938 -22.632812 C 4.058594 -20.578125 3.078125 -18.292969 2.332031 -15.914062 C 1.539062 -13.484375 0.933594 -10.964844 0.234375 -8.539062 C 0.046875 -7.746094 -0.09375 -6.953125 0.234375 -6.160156 C 0.558594 -5.367188 1.167969 -4.945312 1.914062 -4.851562 C 2.660156 -4.804688 3.359375 -5.039062 3.6875 -5.691406 C 4.011719 -6.347656 4.246094 -7.046875 4.386719 -7.746094 C 4.574219 -8.539062 4.992188 -9.054688 5.738281 -9.285156 C 7.09375 -9.707031 8.539062 -9.800781 9.984375 -9.894531 C 10.125 -9.894531 10.359375 -9.753906 10.359375 -9.613281 C 10.546875 -8.960938 10.6875 -8.257812 10.78125 -7.558594 C 10.917969 -6.625 11.757812 -5.644531 12.644531 -5.601562 C 13.765625 -5.460938 14.746094 -6.160156 14.980469 -7.234375 C 15.167969 -8.257812 15.257812 -9.285156 15.398438 -10.3125 Z M 6.488281 -14 C 7 -15.632812 7.792969 -17.125 8.773438 -18.664062 C 8.867188 -18.246094 9.007812 -17.871094 9.101562 -17.453125 C 9.238281 -16.472656 9.378906 -15.492188 9.519531 -14.511719 C 9.519531 -14.417969 9.425781 -14.234375 9.332031 -14.234375 C 8.445312 -14.09375 7.511719 -14 6.578125 -13.953125 C 6.578125 -13.90625 6.53125 -13.953125 6.488281 -14 Z M 5.507812 -20.859375 C 5.644531 -21.839844 6.300781 -22.539062 7.046875 -23.097656 C 7.511719 -23.472656 8.027344 -23.847656 8.773438 -23.660156 C 8.121094 -23.191406 7.511719 -22.820312 7 -22.304688 C 6.488281 -21.839844 6.113281 -21.277344 5.644531 -20.765625 C 5.601562 -20.8125 5.554688 -20.8125 5.507812 -20.859375 Z M 2.191406 -5.601562 C 1.632812 -5.554688 1.167969 -5.925781 0.980469 -6.53125 C 0.652344 -7.375 0.886719 -8.445312 1.539062 -8.867188 C 1.167969 -7.605469 1.351562 -6.53125 2.191406 -5.601562 Z M 11.621094 -9.378906 C 11.898438 -8.257812 12.085938 -7.140625 13.253906 -6.488281 C 13.253906 -6.441406 13.207031 -6.394531 13.207031 -6.347656 C 13.066406 -6.347656 12.925781 -6.253906 12.785156 -6.300781 C 12.132812 -6.488281 11.851562 -6.953125 11.621094 -7.558594 C 11.386719 -8.121094 11.339844 -8.726562 11.621094 -9.378906 Z M 11.621094 -9.378906 "/></g></g></g><g fill="#092a0b" fill-opacity="1"><g transform="translate(154.575569, 227.013969)"><g><path d="M 6.441406 -14.886719 C 6.394531 -14.886719 6.347656 -14.886719 6.300781 -14.886719 C 6.019531 -15.679688 5.832031 -16.472656 5.554688 -17.21875 C 5.085938 -18.527344 4.621094 -19.785156 4.058594 -21.046875 C 3.6875 -21.933594 2.613281 -22.351562 1.679688 -22.164062 C 0.792969 -21.933594 0 -21.09375 0 -20.253906 C 0.046875 -19.085938 0.140625 -17.917969 0.328125 -16.753906 C 0.511719 -15.351562 0.792969 -13.953125 1.121094 -12.597656 C 1.351562 -11.386719 1.539062 -10.171875 2.101562 -9.054688 C 3.125 -7 5.691406 -6.488281 7.328125 -7.417969 C 8.398438 -8.027344 8.914062 -9.054688 9.238281 -10.171875 C 9.472656 -11.058594 9.613281 -11.898438 9.847656 -12.738281 C 10.59375 -15.914062 11.386719 -19.039062 12.132812 -22.210938 C 12.226562 -22.773438 12.414062 -23.332031 12.132812 -23.890625 C 11.851562 -24.59375 11.339844 -24.964844 10.640625 -25.058594 C 9.941406 -25.105469 9.332031 -24.871094 9.007812 -24.265625 C 8.726562 -23.707031 8.632812 -23.050781 8.445312 -22.445312 C 8.027344 -20.859375 7.605469 -19.226562 7.1875 -17.640625 C 6.90625 -16.707031 6.671875 -15.820312 6.441406 -14.886719 Z M 2.660156 -11.574219 C 3.21875 -10.6875 3.59375 -9.847656 4.246094 -9.285156 C 4.851562 -8.726562 5.738281 -8.492188 6.578125 -8.027344 C 6.394531 -7.980469 6.160156 -7.839844 5.972656 -7.839844 C 4.992188 -7.746094 4.199219 -8.167969 3.59375 -8.914062 C 3.035156 -9.519531 2.800781 -10.265625 2.613281 -11.011719 C 2.613281 -11.152344 2.660156 -11.292969 2.660156 -11.574219 Z M 0.699219 -19.691406 C 0.792969 -20.019531 0.792969 -20.394531 0.980469 -20.71875 C 1.167969 -21 1.492188 -21.234375 1.773438 -21.417969 C 1.867188 -21.464844 2.101562 -21.324219 2.285156 -21.324219 C 2.148438 -21.1875 2.101562 -21.046875 1.960938 -21 C 1.585938 -20.71875 1.445312 -20.300781 1.351562 -19.832031 C 1.304688 -19.597656 1.304688 -19.320312 1.261719 -19.085938 C 1.261719 -18.992188 1.121094 -18.851562 1.074219 -18.757812 C 0.980469 -18.851562 0.886719 -18.945312 0.839844 -19.039062 C 0.792969 -19.273438 0.746094 -19.460938 0.699219 -19.691406 Z M 9.285156 -22.074219 C 8.960938 -22.867188 9.472656 -24.03125 10.171875 -24.265625 C 10.3125 -24.3125 10.5 -24.3125 10.640625 -24.265625 C 10.734375 -24.265625 10.734375 -23.9375 10.734375 -23.9375 C 10.078125 -23.707031 9.894531 -23.050781 9.613281 -22.539062 C 9.519531 -22.398438 9.425781 -22.257812 9.285156 -22.074219 Z M 9.285156 -22.074219 "/></g></g></g><g fill="#092a0b" fill-opacity="1"><g transform="translate(168.854773, 227.013969)"><g><path d="M 4.898438 -5.878906 C 4.898438 -5.832031 4.898438 -5.832031 4.898438 -5.785156 C 7 -5.925781 9.144531 -6.019531 11.246094 -6.113281 C 12.367188 -6.207031 13.394531 -7.234375 13.484375 -8.398438 C 13.53125 -9.472656 12.738281 -10.6875 11.667969 -10.828125 C 10.5 -10.964844 9.332031 -11.011719 8.121094 -10.917969 C 6.671875 -10.78125 5.226562 -10.546875 3.828125 -10.265625 C 2.941406 -10.125 2.101562 -9.894531 1.304688 -9.566406 C 0.511719 -9.238281 0 -8.539062 0.046875 -7.699219 C 0.09375 -6.441406 1.074219 -5.785156 2.148438 -5.785156 C 3.078125 -5.738281 3.964844 -5.832031 4.898438 -5.878906 Z M 12.554688 -8.867188 C 12.554688 -7.839844 12.132812 -7.234375 11.433594 -7 C 11.292969 -7 11.152344 -7.046875 11.011719 -7.09375 C 11.058594 -7.1875 11.105469 -7.375 11.199219 -7.464844 C 11.757812 -7.933594 11.945312 -8.585938 11.945312 -9.285156 C 11.945312 -9.425781 12.039062 -9.566406 12.085938 -9.707031 C 12.226562 -9.566406 12.367188 -9.472656 12.414062 -9.332031 C 12.507812 -9.144531 12.507812 -8.960938 12.554688 -8.867188 Z M 2.800781 -6.488281 C 2.285156 -6.394531 1.867188 -6.347656 1.539062 -6.625 C 1.074219 -7.140625 0.839844 -7.699219 1.027344 -8.398438 C 1.074219 -8.539062 1.214844 -8.632812 1.261719 -8.726562 C 1.351562 -8.585938 1.398438 -8.492188 1.445312 -8.398438 C 1.539062 -7.699219 1.914062 -7.1875 2.472656 -6.765625 C 2.566406 -6.71875 2.613281 -6.625 2.800781 -6.488281 Z M 9.941406 -25.292969 C 9.425781 -25.246094 8.867188 -25.246094 8.351562 -25.152344 C 7.140625 -25.011719 5.878906 -24.824219 4.667969 -24.640625 C 3.546875 -24.5 2.472656 -24.21875 1.492188 -23.660156 C 0.746094 -23.285156 0.375 -22.257812 0.464844 -21.652344 C 0.652344 -20.347656 1.585938 -19.507812 2.894531 -19.691406 C 3.964844 -19.832031 5.039062 -20.019531 6.113281 -20.066406 C 7.09375 -20.113281 8.074219 -20.300781 9.054688 -20.484375 C 9.894531 -20.625 10.6875 -20.71875 11.480469 -20.953125 C 12.320312 -21.234375 12.878906 -21.933594 12.925781 -22.820312 C 12.972656 -23.613281 12.597656 -24.3125 11.898438 -24.777344 C 11.292969 -25.199219 10.640625 -25.292969 9.941406 -25.292969 Z M 2.800781 -20.4375 C 2.191406 -20.347656 1.820312 -20.53125 1.492188 -21.234375 C 1.214844 -21.746094 1.214844 -22.210938 1.445312 -22.445312 C 1.867188 -21.792969 2.332031 -21.140625 2.800781 -20.4375 Z M 10.59375 -21.558594 C 10.640625 -21.605469 10.59375 -21.699219 10.640625 -21.699219 C 11.152344 -22.164062 11.480469 -22.773438 11.574219 -23.472656 C 11.574219 -23.566406 11.714844 -23.660156 11.757812 -23.660156 C 11.851562 -23.707031 11.945312 -23.566406 11.992188 -23.519531 C 12.273438 -22.820312 11.574219 -21.652344 10.828125 -21.511719 C 10.734375 -21.511719 10.6875 -21.511719 10.59375 -21.558594 Z M 0.464844 -14.140625 C 0.464844 -13.765625 0.699219 -13.207031 1.261719 -12.925781 C 1.632812 -12.738281 2.054688 -12.644531 2.425781 -12.597656 C 3.035156 -12.507812 3.59375 -12.460938 4.199219 -12.460938 C 5.039062 -12.507812 5.878906 -12.597656 6.765625 -12.691406 C 7.652344 -12.785156 8.585938 -12.832031 9.472656 -13.019531 C 10.78125 -13.253906 11.339844 -13.953125 11.386719 -15.027344 C 11.433594 -16.285156 9.894531 -17.453125 8.679688 -17.21875 C 7.511719 -17.03125 6.300781 -16.894531 5.132812 -16.800781 C 3.917969 -16.753906 2.753906 -16.519531 1.632812 -16.097656 C 0.933594 -15.820312 0.464844 -15.167969 0.464844 -14.140625 Z M 10.125 -16.238281 C 10.59375 -15.867188 10.6875 -15.167969 10.453125 -14.558594 C 10.265625 -14 9.800781 -13.671875 9.238281 -13.71875 C 9.847656 -14.417969 10.171875 -15.210938 10.125 -16.238281 Z M 1.773438 -15.398438 C 1.679688 -14.464844 2.148438 -13.8125 2.753906 -13.207031 C 2.191406 -13.113281 1.726562 -13.394531 1.492188 -13.90625 C 1.261719 -14.417969 1.351562 -15.027344 1.773438 -15.398438 Z M 1.773438 -15.398438 "/></g></g></g><g fill="#092a0b" fill-opacity="1"><g transform="translate(184.347245, 227.013969)"><g><path d="M 5.179688 -5.554688 C 5.179688 -5.601562 5.179688 -5.785156 5.179688 -5.925781 C 5.226562 -6.953125 5.320312 -8.027344 5.320312 -9.054688 C 5.414062 -11.386719 5.460938 -13.765625 5.507812 -16.144531 C 5.554688 -17.917969 5.601562 -19.738281 5.601562 -21.558594 C 5.601562 -22.210938 5.554688 -22.867188 5.507812 -23.566406 C 5.460938 -24.59375 5.367188 -25.617188 5.226562 -26.597656 C 5.085938 -27.671875 4.199219 -28.464844 3.171875 -28.464844 C 2.191406 -28.511719 1.214844 -27.8125 1.027344 -26.832031 C 0.886719 -26.179688 0.746094 -25.480469 0.699219 -24.777344 C 0.605469 -23.519531 0.605469 -22.257812 0.511719 -21 C 0.464844 -19.832031 0.328125 -18.710938 0.28125 -17.59375 C 0.140625 -15.820312 0 -14 0 -12.226562 C 0 -9.984375 0.1875 -7.792969 0.234375 -5.601562 C 0.328125 -4.058594 0.933594 -2.847656 2.191406 -1.914062 C 2.847656 -1.445312 3.546875 -1.167969 4.292969 -1.214844 C 4.992188 -1.261719 5.644531 -1.351562 6.300781 -1.492188 C 7 -1.632812 7.652344 -2.285156 7.746094 -3.125 C 7.839844 -3.875 7.605469 -4.574219 6.953125 -4.945312 C 6.441406 -5.226562 5.832031 -5.320312 5.179688 -5.554688 Z M 4.714844 -2.007812 C 4.433594 -2.007812 4.105469 -1.960938 3.875 -2.054688 C 2.191406 -2.613281 1.398438 -4.199219 1.261719 -5.644531 C 1.261719 -5.738281 1.351562 -5.832031 1.398438 -5.972656 C 1.492188 -5.878906 1.632812 -5.832031 1.679688 -5.738281 C 2.191406 -4.152344 3.078125 -2.941406 4.621094 -2.285156 C 4.667969 -2.238281 4.714844 -2.191406 4.761719 -2.191406 C 4.761719 -2.101562 4.714844 -2.054688 4.714844 -2.007812 Z M 3.964844 -27.34375 C 3.3125 -27.160156 2.753906 -26.925781 2.472656 -26.320312 C 2.238281 -25.757812 2.054688 -25.199219 1.820312 -24.59375 C 1.351562 -25.199219 1.632812 -26.503906 2.285156 -27.160156 C 2.800781 -27.625 3.546875 -27.71875 3.964844 -27.34375 Z M 3.964844 -27.34375 "/></g></g></g><g fill="#092a0b" fill-opacity="1"><g transform="translate(194.100048, 227.013969)"><g/></g></g><g fill="#092a0b" fill-opacity="1"><g transform="translate(206.326045, 227.013969)"><g><path d="M 14.558594 -2.894531 C 14.605469 -2.472656 14.652344 -2.101562 14.746094 -1.773438 C 14.933594 -0.652344 15.773438 0.1875 16.847656 0.28125 C 18.058594 0.421875 19.039062 -0.09375 19.460938 -1.167969 C 19.644531 -1.679688 19.691406 -2.191406 19.691406 -2.707031 C 19.785156 -4.339844 19.738281 -5.972656 19.832031 -7.605469 C 19.972656 -9.519531 19.972656 -11.480469 19.878906 -13.394531 C 19.832031 -13.859375 19.738281 -14.324219 19.644531 -14.792969 C 19.414062 -15.679688 18.898438 -16.144531 18.105469 -16.191406 C 17.265625 -16.238281 16.707031 -15.867188 16.425781 -14.933594 C 15.726562 -12.785156 14.652344 -10.871094 13.484375 -9.007812 C 13.066406 -8.304688 12.507812 -7.746094 11.945312 -7.1875 C 11.386719 -6.671875 11.105469 -6.71875 10.453125 -7.140625 C 9.191406 -7.980469 8.351562 -9.144531 7.792969 -10.546875 C 6.90625 -12.644531 6.625 -14.933594 6.859375 -17.171875 C 7.046875 -18.898438 7.511719 -20.578125 7.886719 -22.304688 C 8.257812 -23.847656 9.144531 -25.105469 10.3125 -26.179688 C 11.386719 -27.160156 12.597656 -27.113281 13.859375 -26.785156 C 14.234375 -26.691406 14.558594 -26.367188 14.886719 -26.085938 C 15.027344 -25.945312 15.167969 -25.757812 15.304688 -25.574219 C 15.820312 -25.011719 16.425781 -24.824219 17.171875 -25.058594 C 17.824219 -25.246094 18.292969 -25.945312 18.292969 -26.738281 C 18.339844 -28.09375 17.824219 -29.257812 16.800781 -30.144531 C 14.839844 -31.824219 12.507812 -32.011719 10.125 -31.59375 C 7.792969 -31.171875 6.019531 -29.773438 4.480469 -28 C 2.519531 -25.804688 1.398438 -23.144531 0.652344 -20.300781 C -0.140625 -17.171875 -0.1875 -14 0.605469 -10.871094 C 0.886719 -9.613281 1.214844 -8.351562 1.726562 -7.140625 C 2.800781 -4.667969 4.761719 -2.941406 7.140625 -1.773438 C 9.144531 -0.746094 11.199219 -0.792969 13.160156 -1.914062 C 13.625 -2.148438 14 -2.519531 14.558594 -2.894531 Z M 4.152344 -6.347656 C 5.507812 -4.574219 7.234375 -3.359375 9.378906 -2.660156 C 9.332031 -2.566406 9.285156 -2.472656 9.285156 -2.378906 C 9.007812 -2.378906 8.773438 -2.332031 8.539062 -2.425781 C 6.625 -2.941406 5.132812 -4.058594 4.105469 -5.785156 C 4.011719 -5.878906 4.011719 -6.066406 3.964844 -6.207031 C 4.011719 -6.253906 4.058594 -6.300781 4.152344 -6.347656 Z M 10.265625 -30.660156 C 9.285156 -30.050781 8.398438 -29.539062 7.605469 -28.933594 C 6.8125 -28.324219 6.113281 -27.578125 5.367188 -26.832031 C 5.738281 -28.605469 8.351562 -30.707031 10.265625 -30.660156 Z M 15.632812 -3.171875 C 15.914062 -2.613281 16.097656 -1.960938 16.472656 -1.492188 C 16.800781 -1.074219 17.40625 -0.792969 17.871094 -0.464844 C 17.265625 -0.1875 16.800781 -0.28125 16.238281 -0.792969 C 15.492188 -1.492188 15.304688 -2.332031 15.632812 -3.171875 Z M 15.121094 -27.300781 C 15.914062 -26.972656 16.660156 -26.644531 17.453125 -26.320312 C 17.125 -25.945312 16.9375 -25.898438 16.378906 -26.039062 C 15.679688 -26.273438 15.167969 -26.785156 15.121094 -27.300781 Z M 15.121094 -27.300781 "/></g></g></g><g fill="#092a0b" fill-opacity="1"><g transform="translate(228.258154, 227.013969)"><g><path d="M 10.453125 -10.964844 C 10.5 -10.964844 10.5 -10.964844 10.546875 -10.964844 C 10.546875 -10.5 10.5 -10.078125 10.546875 -9.613281 C 10.640625 -9.101562 10.640625 -8.492188 10.828125 -8.027344 C 11.433594 -6.441406 13.347656 -5.832031 14.605469 -7.1875 C 15.257812 -7.839844 15.398438 -8.726562 15.445312 -9.613281 C 15.539062 -11.480469 15.539062 -13.394531 15.539062 -15.304688 C 15.539062 -16.566406 15.492188 -17.824219 15.445312 -19.085938 C 15.445312 -20.160156 15.210938 -21.1875 14.652344 -22.164062 C 13.71875 -23.800781 11.527344 -24.265625 10.265625 -22.445312 C 9.707031 -21.652344 9.285156 -20.71875 8.960938 -19.832031 C 8.121094 -17.734375 7.417969 -15.585938 6.671875 -13.484375 C 6.441406 -12.878906 6.160156 -12.320312 5.925781 -11.757812 C 5.878906 -11.757812 5.832031 -11.757812 5.738281 -11.757812 C 5.601562 -12.179688 5.367188 -12.554688 5.273438 -12.972656 C 4.804688 -14.886719 4.433594 -16.847656 4.246094 -18.804688 C 4.199219 -19.644531 3.78125 -20.300781 2.941406 -20.53125 C 1.773438 -20.90625 0.605469 -20.484375 0.28125 -18.992188 C 0.09375 -18.058594 0 -17.125 0 -16.191406 C 0 -14.558594 0.046875 -12.925781 0.1875 -11.339844 C 0.328125 -9.519531 1.074219 -8.027344 2.472656 -6.8125 C 3.640625 -5.738281 5.507812 -5.414062 6.90625 -6.019531 C 8.351562 -6.671875 9.191406 -7.839844 9.753906 -9.238281 C 10.03125 -9.847656 10.21875 -10.40625 10.453125 -10.964844 Z M 6.53125 -7.046875 C 6.253906 -6.953125 5.972656 -6.765625 5.691406 -6.765625 C 4.292969 -6.625 3.265625 -7.28125 2.519531 -8.351562 C 2.148438 -8.914062 1.914062 -9.566406 1.632812 -10.171875 C 1.585938 -10.265625 1.632812 -10.40625 1.632812 -10.546875 C 1.679688 -10.546875 1.726562 -10.59375 1.773438 -10.59375 C 1.914062 -10.40625 2.007812 -10.265625 2.101562 -10.078125 C 2.519531 -9.238281 3.078125 -8.492188 3.828125 -7.886719 C 4.480469 -7.417969 5.226562 -7.28125 6.019531 -7.234375 C 6.160156 -7.234375 6.253906 -7.234375 6.394531 -7.234375 C 6.394531 -7.234375 6.441406 -7.1875 6.441406 -7.1875 C 6.488281 -7.140625 6.488281 -7.09375 6.53125 -7.046875 Z M 9.984375 -19.597656 C 9.984375 -19.878906 9.941406 -20.113281 9.984375 -20.347656 C 10.3125 -21.277344 10.78125 -22.074219 11.667969 -22.539062 C 11.945312 -22.679688 12.273438 -22.726562 12.597656 -22.773438 C 12.691406 -22.773438 12.785156 -22.679688 12.878906 -22.632812 C 12.832031 -22.539062 12.738281 -22.445312 12.644531 -22.351562 C 12.644531 -22.351562 12.644531 -22.351562 12.597656 -22.351562 C 11.667969 -21.980469 11.105469 -21.234375 10.6875 -20.394531 C 10.546875 -20.113281 10.359375 -19.832031 10.171875 -19.550781 C 10.125 -19.597656 10.03125 -19.597656 9.984375 -19.597656 Z M 11.757812 -10.964844 C 11.804688 -10.734375 11.851562 -10.546875 11.898438 -10.3125 C 12.085938 -9.753906 12.179688 -9.144531 12.414062 -8.585938 C 12.554688 -8.304688 12.925781 -8.121094 13.207031 -7.839844 C 13.300781 -7.792969 13.347656 -7.699219 13.441406 -7.605469 C 13.300781 -7.558594 13.207031 -7.464844 13.113281 -7.464844 C 12.597656 -7.464844 12.226562 -7.746094 11.898438 -8.167969 C 11.386719 -8.914062 11.386719 -9.800781 11.433594 -10.6875 C 11.433594 -10.78125 11.527344 -10.871094 11.621094 -10.964844 C 11.667969 -10.964844 11.714844 -10.964844 11.757812 -10.964844 Z M 2.519531 -19.878906 C 2.238281 -19.460938 1.960938 -19.039062 1.726562 -18.621094 C 1.632812 -18.433594 1.679688 -18.199219 1.585938 -18.011719 C 1.539062 -17.871094 1.445312 -17.78125 1.351562 -17.6875 C 1.261719 -17.78125 1.167969 -17.917969 1.121094 -18.011719 C 1.027344 -18.710938 1.214844 -19.320312 1.726562 -19.785156 C 2.007812 -20.066406 2.285156 -20.066406 2.519531 -19.878906 Z M 2.519531 -19.878906 "/></g></g></g><g fill="#092a0b" fill-opacity="1"><g transform="translate(245.757176, 227.013969)"><g><path d="M 9.378906 -11.757812 C 10.21875 -12.414062 11.058594 -12.972656 11.714844 -13.671875 C 13.441406 -15.398438 13.90625 -17.453125 13.347656 -19.785156 C 12.972656 -21.234375 12.179688 -22.445312 11.011719 -23.425781 C 9.660156 -24.59375 8.074219 -25.246094 6.300781 -25.339844 C 4.804688 -25.433594 3.359375 -25.011719 1.914062 -24.6875 C 0.699219 -24.40625 0 -23.378906 0 -22.164062 C 0.046875 -21.464844 0.140625 -20.765625 0.1875 -20.066406 C 0.234375 -18.386719 0.234375 -16.660156 0.28125 -14.980469 C 0.28125 -14.28125 0.28125 -13.578125 0.28125 -12.878906 C 0.234375 -11.757812 0.140625 -10.640625 0.09375 -9.566406 C 0.046875 -8.585938 -0.046875 -7.652344 0.046875 -6.71875 C 0.09375 -5.691406 1.074219 -4.804688 2.101562 -4.621094 C 3.125 -4.480469 4.152344 -5.039062 4.621094 -6.019531 C 4.898438 -6.578125 4.898438 -7.234375 4.898438 -7.839844 C 4.945312 -8.398438 5.039062 -8.960938 5.085938 -9.519531 C 5.273438 -9.425781 5.367188 -9.332031 5.414062 -9.238281 C 5.878906 -8.304688 6.253906 -7.328125 6.765625 -6.441406 C 7.328125 -5.554688 7.980469 -4.714844 8.679688 -3.964844 C 9.191406 -3.40625 9.941406 -3.035156 10.546875 -2.566406 C 10.964844 -2.285156 11.386719 -2.191406 11.851562 -2.191406 C 12.644531 -2.191406 13.207031 -2.566406 13.53125 -3.265625 C 13.90625 -3.917969 13.90625 -4.574219 13.441406 -5.179688 C 13.160156 -5.554688 12.785156 -5.832031 12.507812 -6.160156 C 11.105469 -7.886719 10.21875 -9.847656 9.378906 -11.757812 Z M 5.085938 -16.007812 C 4.945312 -17.6875 4.804688 -19.320312 4.667969 -21 C 5.785156 -21.277344 7.511719 -20.671875 8.167969 -19.597656 C 8.445312 -19.226562 8.679688 -18.757812 8.679688 -18.292969 C 8.726562 -17.964844 8.492188 -17.546875 8.214844 -17.3125 C 7.328125 -16.519531 6.347656 -16.097656 5.085938 -16.007812 Z M 9.285156 -20.71875 C 9.425781 -20.578125 9.566406 -20.394531 9.707031 -20.253906 C 10.453125 -18.898438 9.847656 -16.894531 8.492188 -16.144531 C 8.398438 -16.097656 8.257812 -16.144531 8.121094 -16.097656 C 8.167969 -16.238281 8.167969 -16.378906 8.257812 -16.472656 C 8.492188 -16.800781 8.773438 -17.125 9.007812 -17.5 C 9.613281 -18.386719 9.660156 -19.320312 9.238281 -20.300781 C 9.191406 -20.394531 9.191406 -20.53125 9.144531 -20.625 C 9.191406 -20.671875 9.238281 -20.671875 9.285156 -20.71875 Z M 9.285156 -5.644531 C 9.472656 -5.460938 9.707031 -5.273438 9.941406 -5.085938 C 10.59375 -4.527344 11.292969 -4.011719 12.132812 -3.78125 C 12.273438 -3.734375 12.414062 -3.546875 12.507812 -3.453125 C 12.367188 -3.359375 12.179688 -3.171875 12.039062 -3.21875 C 11.621094 -3.3125 11.152344 -3.359375 10.871094 -3.59375 C 10.265625 -4.105469 9.753906 -4.714844 9.238281 -5.320312 C 9.191406 -5.367188 9.191406 -5.507812 9.191406 -5.601562 C 9.191406 -5.601562 9.238281 -5.644531 9.285156 -5.644531 Z M 1.121094 -8.960938 C 1.167969 -8.773438 1.261719 -8.679688 1.261719 -8.539062 C 1.351562 -7.511719 1.820312 -6.765625 2.707031 -6.253906 C 2.847656 -6.160156 2.894531 -6.019531 2.941406 -5.878906 C 2.800781 -5.832031 2.660156 -5.738281 2.566406 -5.785156 C 2.285156 -5.832031 2.007812 -5.925781 1.820312 -6.066406 C 1.074219 -6.71875 0.792969 -7.558594 0.839844 -8.539062 C 0.886719 -8.585938 0.886719 -8.679688 0.933594 -8.726562 C 0.933594 -8.773438 0.980469 -8.820312 1.121094 -8.960938 Z M 1.304688 -21.558594 C 1.261719 -21.699219 1.167969 -21.792969 1.121094 -21.933594 C 0.980469 -22.632812 1.492188 -23.707031 2.148438 -24.03125 C 2.238281 -24.078125 2.425781 -24.03125 2.566406 -24.03125 C 2.519531 -23.890625 2.519531 -23.753906 2.425781 -23.660156 C 1.867188 -23.191406 1.679688 -22.585938 1.539062 -21.933594 C 1.492188 -21.839844 1.492188 -21.699219 1.445312 -21.605469 C 1.398438 -21.605469 1.351562 -21.558594 1.304688 -21.558594 Z M 1.304688 -21.558594 "/></g></g></g><g fill="#092a0b" fill-opacity="1"><g transform="translate(261.529628, 227.013969)"><g><path d="M 10.453125 -10.964844 C 10.5 -10.964844 10.5 -10.964844 10.546875 -10.964844 C 10.546875 -10.5 10.5 -10.078125 10.546875 -9.613281 C 10.640625 -9.101562 10.640625 -8.492188 10.828125 -8.027344 C 11.433594 -6.441406 13.347656 -5.832031 14.605469 -7.1875 C 15.257812 -7.839844 15.398438 -8.726562 15.445312 -9.613281 C 15.539062 -11.480469 15.539062 -13.394531 15.539062 -15.304688 C 15.539062 -16.566406 15.492188 -17.824219 15.445312 -19.085938 C 15.445312 -20.160156 15.210938 -21.1875 14.652344 -22.164062 C 13.71875 -23.800781 11.527344 -24.265625 10.265625 -22.445312 C 9.707031 -21.652344 9.285156 -20.71875 8.960938 -19.832031 C 8.121094 -17.734375 7.417969 -15.585938 6.671875 -13.484375 C 6.441406 -12.878906 6.160156 -12.320312 5.925781 -11.757812 C 5.878906 -11.757812 5.832031 -11.757812 5.738281 -11.757812 C 5.601562 -12.179688 5.367188 -12.554688 5.273438 -12.972656 C 4.804688 -14.886719 4.433594 -16.847656 4.246094 -18.804688 C 4.199219 -19.644531 3.78125 -20.300781 2.941406 -20.53125 C 1.773438 -20.90625 0.605469 -20.484375 0.28125 -18.992188 C 0.09375 -18.058594 0 -17.125 0 -16.191406 C 0 -14.558594 0.046875 -12.925781 0.1875 -11.339844 C 0.328125 -9.519531 1.074219 -8.027344 2.472656 -6.8125 C 3.640625 -5.738281 5.507812 -5.414062 6.90625 -6.019531 C 8.351562 -6.671875 9.191406 -7.839844 9.753906 -9.238281 C 10.03125 -9.847656 10.21875 -10.40625 10.453125 -10.964844 Z M 6.53125 -7.046875 C 6.253906 -6.953125 5.972656 -6.765625 5.691406 -6.765625 C 4.292969 -6.625 3.265625 -7.28125 2.519531 -8.351562 C 2.148438 -8.914062 1.914062 -9.566406 1.632812 -10.171875 C 1.585938 -10.265625 1.632812 -10.40625 1.632812 -10.546875 C 1.679688 -10.546875 1.726562 -10.59375 1.773438 -10.59375 C 1.914062 -10.40625 2.007812 -10.265625 2.101562 -10.078125 C 2.519531 -9.238281 3.078125 -8.492188 3.828125 -7.886719 C 4.480469 -7.417969 5.226562 -7.28125 6.019531 -7.234375 C 6.160156 -7.234375 6.253906 -7.234375 6.394531 -7.234375 C 6.394531 -7.234375 6.441406 -7.1875 6.441406 -7.1875 C 6.488281 -7.140625 6.488281 -7.09375 6.53125 -7.046875 Z M 9.984375 -19.597656 C 9.984375 -19.878906 9.941406 -20.113281 9.984375 -20.347656 C 10.3125 -21.277344 10.78125 -22.074219 11.667969 -22.539062 C 11.945312 -22.679688 12.273438 -22.726562 12.597656 -22.773438 C 12.691406 -22.773438 12.785156 -22.679688 12.878906 -22.632812 C 12.832031 -22.539062 12.738281 -22.445312 12.644531 -22.351562 C 12.644531 -22.351562 12.644531 -22.351562 12.597656 -22.351562 C 11.667969 -21.980469 11.105469 -21.234375 10.6875 -20.394531 C 10.546875 -20.113281 10.359375 -19.832031 10.171875 -19.550781 C 10.125 -19.597656 10.03125 -19.597656 9.984375 -19.597656 Z M 11.757812 -10.964844 C 11.804688 -10.734375 11.851562 -10.546875 11.898438 -10.3125 C 12.085938 -9.753906 12.179688 -9.144531 12.414062 -8.585938 C 12.554688 -8.304688 12.925781 -8.121094 13.207031 -7.839844 C 13.300781 -7.792969 13.347656 -7.699219 13.441406 -7.605469 C 13.300781 -7.558594 13.207031 -7.464844 13.113281 -7.464844 C 12.597656 -7.464844 12.226562 -7.746094 11.898438 -8.167969 C 11.386719 -8.914062 11.386719 -9.800781 11.433594 -10.6875 C 11.433594 -10.78125 11.527344 -10.871094 11.621094 -10.964844 C 11.667969 -10.964844 11.714844 -10.964844 11.757812 -10.964844 Z M 2.519531 -19.878906 C 2.238281 -19.460938 1.960938 -19.039062 1.726562 -18.621094 C 1.632812 -18.433594 1.679688 -18.199219 1.585938 -18.011719 C 1.539062 -17.871094 1.445312 -17.78125 1.351562 -17.6875 C 1.261719 -17.78125 1.167969 -17.917969 1.121094 -18.011719 C 1.027344 -18.710938 1.214844 -19.320312 1.726562 -19.785156 C 2.007812 -20.066406 2.285156 -20.066406 2.519531 -19.878906 Z M 2.519531 -19.878906 "/></g></g></g><g clip-path="url(#598de689f3)"><path fill="#092a0b" d="M 135.058594 114.589844 L 138.941406 110.519531 C 141.222656 108.253906 145.050781 109.039062 145.050781 109.039062 L 156.425781 110.589844 L 162.1875 104.972656 C 165.222656 102.007812 167.960938 106.546875 166.769531 108.113281 L 163.8125 111.539062 L 176.0625 113.796875 L 180.222656 108.96875 C 184.664062 103.679688 187.96875 108.445312 185.964844 111.25 L 183.28125 114.636719 L 201.683594 117.027344 C 217.507812 101.859375 223.96875 95.570312 228.132812 99.308594 C 232.324219 103.066406 224.910156 110.566406 210.492188 125.355469 L 213.109375 144.238281 L 216.96875 141.039062 C 219.242188 139.152344 223.285156 142.179688 219.113281 146.121094 L 213.808594 151.101562 L 216.046875 163.464844 L 219.359375 160.925781 C 222.289062 158.605469 225.839844 161.675781 221.882812 165.882812 L 216.621094 171.167969 C 216.402344 171.328125 218.335938 182.007812 218.335938 182.007812 C 219.527344 187.242188 216.5625 189.15625 216.5625 189.15625 L 212.949219 192.296875 L 199.214844 153.652344 C 198.074219 150.253906 195.1875 146.5625 190.371094 147 C 187.824219 147.269531 181.390625 151.59375 180.523438 152.621094 L 165.625 166.886719 C 165.246094 167.15625 167.917969 185.433594 167.917969 185.433594 C 167.917969 185.972656 163.195312 192.140625 163.195312 192.140625 L 153.753906 175.40625 L 149.09375 177.566406 L 151.820312 173.339844 L 134.824219 163.785156 L 141.199219 159.144531 C 144.230469 159.847656 160.140625 161.628906 160.46875 161.464844 C 160.46875 161.464844 173.425781 148.667969 174.167969 147.894531 C 178.449219 143.414062 179.886719 141.738281 180.535156 139.527344 C 181.1875 137.3125 180.078125 134.066406 173.359375 129.960938 C 164.09375 124.292969 135.058594 114.589844 135.058594 114.589844 Z M 135.058594 114.589844 " fill-opacity="1" fill-rule="nonzero"/></g><g fill="#092a0b" fill-opacity="1"><g transform="translate(130.181725, 244.0453)"><g><path d="M 3.3125 0.40625 C 5.507812 0.40625 6.980469 -0.40625 6.980469 -1.648438 C 6.980469 -2.355469 6.289062 -3.152344 5.347656 -3.59375 C 5.226562 -3.667969 5.226562 -3.753906 5.347656 -3.824219 C 6.144531 -4.269531 6.484375 -4.816406 6.484375 -5.578125 C 6.484375 -6.039062 6.269531 -6.484375 5.914062 -6.835938 C 5.402344 -7.316406 4.605469 -7.597656 3.667969 -7.597656 C 3.0625 -7.597656 2.480469 -7.492188 1.859375 -7.261719 C 1.59375 -7.171875 1.433594 -6.996094 1.433594 -6.800781 C 1.433594 -6.660156 1.523438 -6.535156 1.683594 -6.359375 C 1.824219 -6.234375 1.859375 -6.109375 1.84375 -5.808594 C 1.84375 -5.347656 1.84375 -4.605469 1.859375 -4.320312 C 1.894531 -3.558594 1.914062 -2.675781 1.914062 -0.992188 C 1.914062 -0.441406 1.628906 -0.636719 1.628906 -0.140625 C 1.628906 0.125 1.949219 0.355469 2.300781 0.371094 C 2.640625 0.40625 2.976562 0.40625 3.3125 0.40625 Z M 3.136719 -4.394531 L 3.136719 -6.289062 C 3.136719 -6.394531 3.1875 -6.464844 3.292969 -6.484375 C 3.472656 -6.519531 3.648438 -6.535156 3.808594 -6.535156 C 4.199219 -6.535156 4.480469 -6.445312 4.78125 -6.269531 C 5.046875 -6.109375 5.191406 -5.878906 5.191406 -5.632812 C 5.191406 -4.871094 4.640625 -4.445312 3.328125 -4.234375 C 3.207031 -4.214844 3.136719 -4.285156 3.136719 -4.394531 Z M 3.257812 -0.851562 C 3.207031 -1.398438 3.171875 -2.460938 3.207031 -2.921875 C 3.207031 -2.992188 3.257812 -3.027344 3.382812 -3.027344 C 4.480469 -3.027344 5.703125 -2.320312 5.703125 -1.648438 C 5.703125 -1.007812 4.996094 -0.726562 3.453125 -0.691406 C 3.328125 -0.691406 3.277344 -0.742188 3.257812 -0.851562 Z M 3.257812 -0.851562 "/></g></g></g><g fill="#092a0b" fill-opacity="1"><g transform="translate(139.231052, 244.0453)"><g><path d="M 3.667969 0.320312 C 4.394531 0.285156 5.03125 0.0351562 5.648438 -0.175781 C 5.988281 -0.285156 6.144531 -0.53125 6.074219 -0.78125 C 6.058594 -0.867188 6.039062 -0.921875 5.988281 -0.972656 C 5.863281 -1.167969 5.5625 -1.238281 5.226562 -1.152344 L 4.730469 -1.007812 C 4.5 -0.9375 4.25 -0.867188 4.003906 -0.816406 C 3.4375 -0.671875 3.292969 -0.742188 3.152344 -1.273438 C 2.957031 -1.964844 2.941406 -2.675781 2.921875 -3.171875 C 2.90625 -3.277344 2.957031 -3.347656 3.082031 -3.367188 C 4.019531 -3.507812 4.410156 -3.488281 4.816406 -3.523438 L 5.648438 -3.578125 C 6.003906 -3.59375 6.253906 -3.789062 6.253906 -4.074219 C 6.253906 -4.375 6.003906 -4.570312 5.632812 -4.570312 C 5.261719 -4.605469 4.871094 -4.570312 3.152344 -4.410156 C 3.027344 -4.394531 2.957031 -4.480469 2.957031 -4.585938 L 2.957031 -6.625 C 2.957031 -6.730469 3.027344 -6.800781 3.136719 -6.820312 C 4.375 -6.890625 4.640625 -6.90625 4.886719 -6.90625 C 5.152344 -6.925781 5.4375 -6.925781 5.722656 -6.941406 C 6.023438 -6.980469 6.253906 -7.207031 6.234375 -7.457031 C 6.234375 -7.6875 6.003906 -7.882812 5.722656 -7.933594 C 5.527344 -7.96875 5.296875 -7.988281 5.066406 -7.988281 C 4.695312 -7.953125 4.339844 -7.933594 3.984375 -7.898438 C 3.632812 -7.863281 3.277344 -7.828125 2.921875 -7.8125 C 2.796875 -7.792969 2.726562 -7.777344 2.640625 -7.792969 C 2.375 -7.882812 2.109375 -7.847656 1.84375 -7.6875 C 1.382812 -7.421875 1.3125 -7.191406 1.613281 -6.890625 C 1.664062 -6.820312 1.699219 -6.765625 1.699219 -6.675781 C 1.71875 -6.269531 1.699219 -5.96875 1.683594 -5.542969 C 1.683594 -5.382812 1.664062 -5.226562 1.664062 -5.066406 C 1.648438 -4.144531 1.59375 -3.242188 1.648438 -2.691406 C 1.699219 -1.984375 1.769531 -1.273438 2.074219 -0.585938 C 2.285156 -0.0703125 3.046875 0.355469 3.667969 0.320312 Z M 3.667969 0.320312 "/></g></g></g><g fill="#092a0b" fill-opacity="1"><g transform="translate(147.572038, 244.0453)"><g><path d="M 3.578125 0.230469 C 4.675781 0.230469 5.808594 -0.65625 5.808594 -1.894531 C 5.808594 -2.941406 4.710938 -3.453125 3.136719 -4.179688 C 2.746094 -4.410156 2.53125 -4.695312 2.53125 -5.011719 C 2.53125 -5.5625 3.1875 -5.933594 3.738281 -5.933594 C 4.128906 -5.933594 4.640625 -5.722656 4.871094 -5.296875 C 4.976562 -5.117188 5.207031 -4.996094 5.4375 -4.996094 C 5.863281 -4.996094 6.21875 -5.382812 6.023438 -5.757812 C 5.703125 -6.359375 5.171875 -6.765625 4.464844 -6.980469 C 4.285156 -7.03125 4.089844 -7.066406 3.859375 -7.066406 C 2.515625 -7.066406 1.203125 -6.179688 1.203125 -4.960938 C 1.203125 -4.109375 1.824219 -3.382812 2.761719 -2.957031 C 3.632812 -2.53125 4.429688 -2.214844 4.445312 -1.683594 C 4.464844 -1.222656 3.984375 -0.921875 3.417969 -0.921875 C 2.992188 -0.921875 2.726562 -1.027344 2.425781 -1.363281 C 2.300781 -1.488281 2.109375 -1.558594 1.929688 -1.558594 C 1.558594 -1.558594 1.273438 -1.292969 1.273438 -0.957031 C 1.273438 -0.371094 2.640625 0.230469 3.578125 0.230469 Z M 3.578125 0.230469 "/></g></g></g><g fill="#092a0b" fill-opacity="1"><g transform="translate(155.629679, 244.0453)"><g><path d="M 6.890625 -6.980469 C 6.75 -7.226562 6.464844 -7.246094 6.21875 -7.246094 C 5.757812 -7.226562 5.3125 -7.191406 4.851562 -7.136719 C 4.675781 -7.121094 4.5 -7.101562 4.339844 -7.085938 C 4.234375 -7.085938 4.164062 -7.121094 4.128906 -7.226562 C 4.003906 -7.492188 3.808594 -7.632812 3.558594 -7.617188 C 3.136719 -7.582031 3.046875 -7.316406 3.011719 -7.085938 C 2.976562 -6.996094 2.921875 -6.941406 2.832031 -6.925781 L 2.035156 -6.785156 C 1.71875 -6.730469 1.382812 -6.675781 1.0625 -6.640625 C 0.621094 -6.589844 0.371094 -6.339844 0.40625 -5.988281 C 0.476562 -5.667969 0.851562 -5.472656 1.257812 -5.527344 C 1.382812 -5.542969 1.503906 -5.5625 1.628906 -5.597656 C 1.683594 -5.613281 1.753906 -5.632812 1.789062 -5.632812 C 2.054688 -5.6875 2.300781 -5.722656 2.585938 -5.757812 L 2.761719 -5.773438 C 2.871094 -5.792969 2.941406 -5.738281 2.957031 -5.613281 C 2.957031 -5.4375 2.957031 -5.261719 2.957031 -5.066406 C 2.941406 -4.179688 2.941406 -3.292969 2.957031 -2.425781 C 2.957031 -1.824219 2.976562 -1.222656 3.011719 -0.601562 C 3.011719 -0.335938 3.207031 -0.140625 3.488281 -0.0898438 C 3.773438 -0.0351562 4.074219 -0.160156 4.179688 -0.390625 C 4.25 -0.511719 4.269531 -0.601562 4.269531 -0.851562 C 4.269531 -1.097656 4.25 -1.363281 4.234375 -1.613281 C 4.214844 -2 4.199219 -2.390625 4.199219 -2.78125 C 4.179688 -3.207031 4.199219 -3.632812 4.199219 -4.054688 L 4.199219 -5.136719 C 4.199219 -5.347656 4.179688 -5.578125 4.199219 -5.792969 C 4.199219 -5.898438 4.25 -5.953125 4.355469 -5.96875 C 4.570312 -5.988281 4.765625 -6.003906 4.941406 -6.039062 C 5.421875 -6.074219 5.914062 -6.109375 6.394531 -6.164062 C 6.90625 -6.234375 7.15625 -6.625 6.890625 -6.980469 Z M 6.890625 -6.980469 "/></g></g></g><g fill="#092a0b" fill-opacity="1"><g transform="translate(164.041497, 244.0453)"><g/></g></g><g fill="#092a0b" fill-opacity="1"><g transform="translate(170.328283, 244.0453)"><g><path d="M 6.890625 -6.980469 C 6.75 -7.226562 6.464844 -7.246094 6.21875 -7.246094 C 5.757812 -7.226562 5.3125 -7.191406 4.851562 -7.136719 C 4.675781 -7.121094 4.5 -7.101562 4.339844 -7.085938 C 4.234375 -7.085938 4.164062 -7.121094 4.128906 -7.226562 C 4.003906 -7.492188 3.808594 -7.632812 3.558594 -7.617188 C 3.136719 -7.582031 3.046875 -7.316406 3.011719 -7.085938 C 2.976562 -6.996094 2.921875 -6.941406 2.832031 -6.925781 L 2.035156 -6.785156 C 1.71875 -6.730469 1.382812 -6.675781 1.0625 -6.640625 C 0.621094 -6.589844 0.371094 -6.339844 0.40625 -5.988281 C 0.476562 -5.667969 0.851562 -5.472656 1.257812 -5.527344 C 1.382812 -5.542969 1.503906 -5.5625 1.628906 -5.597656 C 1.683594 -5.613281 1.753906 -5.632812 1.789062 -5.632812 C 2.054688 -5.6875 2.300781 -5.722656 2.585938 -5.757812 L 2.761719 -5.773438 C 2.871094 -5.792969 2.941406 -5.738281 2.957031 -5.613281 C 2.957031 -5.4375 2.957031 -5.261719 2.957031 -5.066406 C 2.941406 -4.179688 2.941406 -3.292969 2.957031 -2.425781 C 2.957031 -1.824219 2.976562 -1.222656 3.011719 -0.601562 C 3.011719 -0.335938 3.207031 -0.140625 3.488281 -0.0898438 C 3.773438 -0.0351562 4.074219 -0.160156 4.179688 -0.390625 C 4.25 -0.511719 4.269531 -0.601562 4.269531 -0.851562 C 4.269531 -1.097656 4.25 -1.363281 4.234375 -1.613281 C 4.214844 -2 4.199219 -2.390625 4.199219 -2.78125 C 4.179688 -3.207031 4.199219 -3.632812 4.199219 -4.054688 L 4.199219 -5.136719 C 4.199219 -5.347656 4.179688 -5.578125 4.199219 -5.792969 C 4.199219 -5.898438 4.25 -5.953125 4.355469 -5.96875 C 4.570312 -5.988281 4.765625 -6.003906 4.941406 -6.039062 C 5.421875 -6.074219 5.914062 -6.109375 6.394531 -6.164062 C 6.90625 -6.234375 7.15625 -6.625 6.890625 -6.980469 Z M 6.890625 -6.980469 "/></g></g></g><g fill="#092a0b" fill-opacity="1"><g transform="translate(178.740102, 244.0453)"><g><path d="M 4.464844 -0.0195312 C 6.730469 -0.0195312 8.234375 -1.453125 8.21875 -3.578125 C 8.21875 -5.171875 6.800781 -6.714844 5.226562 -6.855469 C 5.136719 -6.871094 5.082031 -6.890625 4.996094 -6.925781 C 4.871094 -6.996094 4.710938 -7.050781 4.535156 -7.050781 C 4.304688 -7.050781 4.164062 -7.015625 4.019531 -6.980469 C 2.074219 -6.394531 1.097656 -5.136719 1.097656 -3.1875 C 1.117188 -1.433594 2.621094 -0.0195312 4.464844 -0.0195312 Z M 4.746094 -1.097656 C 3.382812 -1.097656 2.425781 -2.035156 2.410156 -3.417969 C 2.410156 -4.394531 2.886719 -5.613281 4.355469 -5.898438 C 4.445312 -5.914062 4.515625 -5.898438 4.585938 -5.863281 C 4.710938 -5.828125 4.835938 -5.792969 4.941406 -5.773438 C 5.046875 -5.757812 5.082031 -5.757812 5.152344 -5.738281 C 6.179688 -5.527344 6.90625 -4.675781 6.960938 -3.59375 C 6.996094 -2.25 5.988281 -1.097656 4.746094 -1.097656 Z M 4.746094 -1.097656 "/></g></g></g><g fill="#092a0b" fill-opacity="1"><g transform="translate(189.064439, 244.0453)"><g/></g></g><g fill="#092a0b" fill-opacity="1"><g transform="translate(195.351226, 244.0453)"><g><path d="M 2.125 0.621094 C 2.375 0.78125 2.78125 0.78125 2.976562 0.621094 C 3.136719 0.476562 3.1875 0.335938 3.152344 0.160156 C 3.117188 0.0195312 3.027344 -0.0703125 3.011719 -0.230469 C 2.992188 -0.285156 2.992188 -0.335938 2.992188 -0.40625 C 2.957031 -0.972656 2.921875 -1.503906 2.90625 -2.074219 C 2.90625 -2.160156 2.886719 -2.230469 2.886719 -2.320312 C 2.871094 -2.515625 2.851562 -2.710938 2.871094 -2.90625 C 2.871094 -3.011719 2.941406 -3.0625 3.046875 -3.082031 L 3.136719 -3.101562 L 3.808594 -3.207031 C 4.269531 -3.242188 4.730469 -3.277344 5.226562 -3.382812 C 5.527344 -3.472656 5.6875 -3.703125 5.648438 -3.96875 C 5.578125 -4.234375 5.277344 -4.410156 4.960938 -4.375 L 4.5 -4.320312 C 4.179688 -4.269531 3.859375 -4.234375 3.558594 -4.179688 C 3.402344 -4.164062 3.242188 -4.144531 3.082031 -4.128906 C 2.957031 -4.109375 2.886719 -4.179688 2.886719 -4.285156 L 2.886719 -4.695312 C 2.886719 -5.332031 2.886719 -5.953125 2.976562 -6.570312 C 2.992188 -6.660156 3.046875 -6.730469 3.117188 -6.75 C 4.109375 -6.960938 5.101562 -7.136719 6.109375 -7.191406 C 6.554688 -7.207031 6.871094 -7.472656 6.855469 -7.792969 C 6.835938 -8.113281 6.519531 -8.289062 6.074219 -8.253906 C 5.6875 -8.253906 5.277344 -8.21875 4.835938 -8.164062 C 3.84375 -8.007812 2.816406 -7.828125 1.824219 -7.597656 C 1.683594 -7.5625 1.59375 -7.492188 1.523438 -7.402344 C 1.488281 -7.332031 1.46875 -7.28125 1.453125 -7.191406 C 1.398438 -7.03125 1.503906 -6.90625 1.628906 -6.785156 C 1.683594 -6.714844 1.71875 -6.660156 1.71875 -6.570312 L 1.71875 -6.554688 C 1.699219 -6.234375 1.683594 -5.914062 1.648438 -5.578125 C 1.628906 -5.242188 1.59375 -4.90625 1.578125 -4.550781 C 1.539062 -3.808594 1.539062 -3.046875 1.558594 -2.300781 C 1.578125 -1.808594 1.613281 -1.3125 1.648438 -0.816406 C 1.683594 -0.566406 1.699219 -0.320312 1.71875 -0.0351562 C 1.769531 0.300781 1.878906 0.476562 2.125 0.621094 Z M 2.125 0.621094 "/></g></g></g><g fill="#092a0b" fill-opacity="1"><g transform="translate(203.975547, 244.0453)"><g><path d="M 2.285156 0 C 2.871094 0 3.046875 -0.355469 3.046875 -0.9375 C 3.046875 -1.59375 2.941406 -1.613281 2.941406 -3.0625 C 2.941406 -3.84375 2.992188 -4.800781 3.082031 -5.242188 C 3.152344 -5.597656 3.222656 -5.808594 3.222656 -5.96875 C 3.222656 -6.394531 2.816406 -6.75 2.445312 -6.75 C 1.949219 -6.75 1.753906 -6.269531 1.789062 -5.738281 C 1.769531 -4.78125 1.628906 -3.648438 1.628906 -2.675781 C 1.628906 -0.707031 1.664062 0 2.285156 0 Z M 2.285156 0 "/></g></g></g><g fill="#092a0b" fill-opacity="1"><g transform="translate(209.766491, 244.0453)"><g><path d="M 7.792969 -7.136719 C 7.597656 -7.296875 7.351562 -7.296875 7.121094 -7.15625 C 6.871094 -7.03125 6.785156 -6.820312 6.835938 -6.535156 L 6.855469 -6.535156 C 6.855469 -6.535156 6.890625 -6.445312 6.890625 -6.410156 C 6.890625 -6.410156 6.890625 -6.394531 6.890625 -6.394531 C 6.890625 -6.109375 6.871094 -5.828125 6.835938 -5.527344 C 6.800781 -5.03125 6.75 -4.375 6.660156 -2.621094 C 6.640625 -2.445312 6.535156 -2.410156 6.445312 -2.550781 C 5.878906 -3.347656 5.171875 -4.375 4.445312 -5.457031 C 4.394531 -5.542969 4.304688 -5.648438 4.25 -5.757812 C 3.914062 -6.234375 3.613281 -6.730469 3.1875 -7.191406 C 2.992188 -7.421875 2.710938 -7.546875 2.390625 -7.472656 C 2.125 -7.402344 1.914062 -7.191406 1.878906 -6.90625 C 1.878906 -6.90625 1.808594 -6.410156 1.808594 -6.359375 L 1.699219 -4.234375 C 1.648438 -3.257812 1.578125 -2.285156 1.613281 -1.292969 C 1.628906 -1.027344 1.628906 -0.78125 1.628906 -0.511719 C 1.628906 -0.195312 1.734375 0.0351562 2.074219 0.0898438 C 2.496094 0.140625 2.886719 -0.125 2.886719 -0.707031 C 2.886719 -0.992188 2.851562 -1.914062 2.871094 -2.375 C 2.90625 -3.242188 2.976562 -4.089844 3.046875 -4.960938 C 3.046875 -5.117188 3.171875 -5.152344 3.257812 -5.011719 C 4.019531 -3.859375 4.800781 -2.691406 5.578125 -1.539062 C 6.09375 -0.761719 6.234375 -0.53125 6.464844 -0.285156 C 6.800781 0.105469 7.296875 0.0195312 7.582031 -0.390625 C 7.667969 -0.550781 7.703125 -0.671875 7.742188 -0.957031 C 7.742188 -1.082031 8.058594 -2.976562 8.058594 -4.5 C 8.078125 -4.941406 8.09375 -5.382812 8.128906 -5.828125 C 8.148438 -6.039062 8.148438 -6.234375 8.164062 -6.445312 C 8.183594 -6.730469 8.078125 -6.925781 7.792969 -7.136719 Z M 7.792969 -7.136719 "/></g></g></g><g fill="#092a0b" fill-opacity="1"><g transform="translate(220.498128, 244.0453)"><g><path d="M 2.941406 0.355469 C 2.992188 0.355469 3.046875 0.355469 3.101562 0.335938 C 3.277344 0.285156 3.367188 0.210938 3.507812 0.125 C 3.683594 0.0351562 3.824219 -0.0195312 4.003906 -0.0546875 C 4.199219 -0.0898438 4.429688 -0.160156 4.675781 -0.265625 C 6.871094 -1.292969 8.429688 -2.109375 8.429688 -4.320312 C 8.429688 -6.269531 6.339844 -7.722656 3.558594 -7.722656 C 3.472656 -7.722656 3.242188 -7.703125 2.976562 -7.667969 C 2.605469 -7.632812 2.195312 -7.597656 1.964844 -7.597656 C 1.613281 -7.597656 1.363281 -7.402344 1.363281 -7.085938 C 1.363281 -6.890625 1.453125 -6.730469 1.699219 -6.570312 C 1.789062 -6.519531 1.824219 -6.445312 1.824219 -6.359375 L 1.824219 -6.09375 C 1.824219 -4.214844 1.914062 -2.054688 2.285156 -0.0898438 C 2.339844 0.160156 2.621094 0.355469 2.941406 0.355469 Z M 3.417969 -1.238281 C 3.207031 -2.710938 3.101562 -4.851562 3.082031 -6.464844 C 3.082031 -6.589844 3.136719 -6.660156 3.242188 -6.660156 C 3.382812 -6.675781 3.507812 -6.695312 3.667969 -6.695312 C 5.722656 -6.695312 7.171875 -5.722656 7.171875 -4.320312 C 7.171875 -2.65625 5.632812 -1.648438 3.613281 -1.117188 C 3.507812 -1.082031 3.417969 -1.132812 3.417969 -1.238281 Z M 3.417969 -1.238281 "/></g></g></g><g fill="#092a0b" fill-opacity="1"><g transform="translate(230.680802, 244.0453)"><g/></g></g><g fill="#092a0b" fill-opacity="1"><g transform="translate(236.967589, 244.0453)"><g><path d="M 1.3125 0.425781 C 1.558594 0.425781 1.753906 0.300781 1.878906 0.0703125 C 2 -0.210938 2.160156 -0.851562 2.285156 -1.3125 L 2.339844 -1.539062 C 2.355469 -1.628906 2.425781 -1.699219 2.53125 -1.699219 L 3.328125 -1.699219 C 4.054688 -1.699219 4.925781 -1.699219 5.5625 -1.734375 C 5.667969 -1.753906 5.738281 -1.699219 5.773438 -1.613281 C 5.828125 -1.417969 5.863281 -1.238281 5.878906 -1.046875 C 5.898438 -0.972656 5.878906 -0.886719 5.878906 -0.78125 L 5.878906 -0.476562 C 5.878906 -0.125 6.179688 0.125 6.589844 0.125 C 7.015625 0.125 7.28125 -0.195312 7.191406 -0.621094 C 6.605469 -4.515625 5.792969 -7.121094 4.800781 -7.582031 C 4.605469 -7.6875 4.375 -7.742188 4.128906 -7.742188 C 3.703125 -7.742188 3.328125 -7.527344 3.046875 -7.136719 C 2.320312 -6.109375 1.984375 -4.851562 1.382812 -2.90625 C 1.363281 -2.816406 1.3125 -2.761719 1.238281 -2.710938 C 1.027344 -2.585938 0.957031 -2.496094 0.972656 -2.339844 C 0.972656 -2.265625 1.007812 -2.179688 1.0625 -2.035156 C 1.097656 -1.964844 1.117188 -1.929688 1.117188 -1.914062 C 1.117188 -1.878906 0.867188 -0.886719 0.742188 -0.40625 C 0.691406 -0.265625 0.636719 -0.0195312 0.636719 -0.0195312 C 0.671875 0.246094 0.957031 0.425781 1.3125 0.425781 Z M 2.761719 -3.027344 C 3.101562 -4.039062 3.367188 -5.117188 3.949219 -6.164062 C 4.074219 -6.394531 4.304688 -6.410156 4.445312 -6.179688 C 4.835938 -5.507812 5.207031 -4.375 5.492188 -3.0625 C 5.507812 -2.941406 5.457031 -2.871094 5.332031 -2.851562 C 4.835938 -2.832031 4.355469 -2.832031 3.859375 -2.832031 C 3.542969 -2.832031 3.207031 -2.832031 2.90625 -2.816406 C 2.78125 -2.816406 2.726562 -2.90625 2.761719 -3.027344 Z M 2.761719 -3.027344 "/></g></g></g><g fill="#092a0b" fill-opacity="1"><g transform="translate(140.186364, 268.788158)"><g><path d="M 2.941406 0.355469 C 2.992188 0.355469 3.046875 0.355469 3.101562 0.335938 C 3.277344 0.285156 3.367188 0.210938 3.507812 0.125 C 3.683594 0.0351562 3.824219 -0.0195312 4.003906 -0.0546875 C 4.199219 -0.0898438 4.429688 -0.160156 4.675781 -0.265625 C 6.871094 -1.292969 8.429688 -2.109375 8.429688 -4.320312 C 8.429688 -6.269531 6.339844 -7.722656 3.558594 -7.722656 C 3.472656 -7.722656 3.242188 -7.703125 2.976562 -7.667969 C 2.605469 -7.632812 2.195312 -7.597656 1.964844 -7.597656 C 1.613281 -7.597656 1.363281 -7.402344 1.363281 -7.085938 C 1.363281 -6.890625 1.453125 -6.730469 1.699219 -6.570312 C 1.789062 -6.519531 1.824219 -6.445312 1.824219 -6.359375 L 1.824219 -6.09375 C 1.824219 -4.214844 1.914062 -2.054688 2.285156 -0.0898438 C 2.339844 0.160156 2.621094 0.355469 2.941406 0.355469 Z M 3.417969 -1.238281 C 3.207031 -2.710938 3.101562 -4.851562 3.082031 -6.464844 C 3.082031 -6.589844 3.136719 -6.660156 3.242188 -6.660156 C 3.382812 -6.675781 3.507812 -6.695312 3.667969 -6.695312 C 5.722656 -6.695312 7.171875 -5.722656 7.171875 -4.320312 C 7.171875 -2.65625 5.632812 -1.648438 3.613281 -1.117188 C 3.507812 -1.082031 3.417969 -1.132812 3.417969 -1.238281 Z M 3.417969 -1.238281 "/></g></g></g><g fill="#092a0b" fill-opacity="1"><g transform="translate(150.369038, 268.788158)"><g><path d="M 3.667969 0.320312 C 4.394531 0.285156 5.03125 0.0351562 5.648438 -0.175781 C 5.988281 -0.285156 6.144531 -0.53125 6.074219 -0.78125 C 6.058594 -0.867188 6.039062 -0.921875 5.988281 -0.972656 C 5.863281 -1.167969 5.5625 -1.238281 5.226562 -1.152344 L 4.730469 -1.007812 C 4.5 -0.9375 4.25 -0.867188 4.003906 -0.816406 C 3.4375 -0.671875 3.292969 -0.742188 3.152344 -1.273438 C 2.957031 -1.964844 2.941406 -2.675781 2.921875 -3.171875 C 2.90625 -3.277344 2.957031 -3.347656 3.082031 -3.367188 C 4.019531 -3.507812 4.410156 -3.488281 4.816406 -3.523438 L 5.648438 -3.578125 C 6.003906 -3.59375 6.253906 -3.789062 6.253906 -4.074219 C 6.253906 -4.375 6.003906 -4.570312 5.632812 -4.570312 C 5.261719 -4.605469 4.871094 -4.570312 3.152344 -4.410156 C 3.027344 -4.394531 2.957031 -4.480469 2.957031 -4.585938 L 2.957031 -6.625 C 2.957031 -6.730469 3.027344 -6.800781 3.136719 -6.820312 C 4.375 -6.890625 4.640625 -6.90625 4.886719 -6.90625 C 5.152344 -6.925781 5.4375 -6.925781 5.722656 -6.941406 C 6.023438 -6.980469 6.253906 -7.207031 6.234375 -7.457031 C 6.234375 -7.6875 6.003906 -7.882812 5.722656 -7.933594 C 5.527344 -7.96875 5.296875 -7.988281 5.066406 -7.988281 C 4.695312 -7.953125 4.339844 -7.933594 3.984375 -7.898438 C 3.632812 -7.863281 3.277344 -7.828125 2.921875 -7.8125 C 2.796875 -7.792969 2.726562 -7.777344 2.640625 -7.792969 C 2.375 -7.882812 2.109375 -7.847656 1.84375 -7.6875 C 1.382812 -7.421875 1.3125 -7.191406 1.613281 -6.890625 C 1.664062 -6.820312 1.699219 -6.765625 1.699219 -6.675781 C 1.71875 -6.269531 1.699219 -5.96875 1.683594 -5.542969 C 1.683594 -5.382812 1.664062 -5.226562 1.664062 -5.066406 C 1.648438 -4.144531 1.59375 -3.242188 1.648438 -2.691406 C 1.699219 -1.984375 1.769531 -1.273438 2.074219 -0.585938 C 2.285156 -0.0703125 3.046875 0.355469 3.667969 0.320312 Z M 3.667969 0.320312 "/></g></g></g><g fill="#092a0b" fill-opacity="1"><g transform="translate(158.710024, 268.788158)"><g><path d="M 3.578125 0.230469 C 4.675781 0.230469 5.808594 -0.65625 5.808594 -1.894531 C 5.808594 -2.941406 4.710938 -3.453125 3.136719 -4.179688 C 2.746094 -4.410156 2.53125 -4.695312 2.53125 -5.011719 C 2.53125 -5.5625 3.1875 -5.933594 3.738281 -5.933594 C 4.128906 -5.933594 4.640625 -5.722656 4.871094 -5.296875 C 4.976562 -5.117188 5.207031 -4.996094 5.4375 -4.996094 C 5.863281 -4.996094 6.21875 -5.382812 6.023438 -5.757812 C 5.703125 -6.359375 5.171875 -6.765625 4.464844 -6.980469 C 4.285156 -7.03125 4.089844 -7.066406 3.859375 -7.066406 C 2.515625 -7.066406 1.203125 -6.179688 1.203125 -4.960938 C 1.203125 -4.109375 1.824219 -3.382812 2.761719 -2.957031 C 3.632812 -2.53125 4.429688 -2.214844 4.445312 -1.683594 C 4.464844 -1.222656 3.984375 -0.921875 3.417969 -0.921875 C 2.992188 -0.921875 2.726562 -1.027344 2.425781 -1.363281 C 2.300781 -1.488281 2.109375 -1.558594 1.929688 -1.558594 C 1.558594 -1.558594 1.273438 -1.292969 1.273438 -0.957031 C 1.273438 -0.371094 2.640625 0.230469 3.578125 0.230469 Z M 3.578125 0.230469 "/></g></g></g><g fill="#092a0b" fill-opacity="1"><g transform="translate(166.767665, 268.788158)"><g><path d="M 6.890625 -6.980469 C 6.75 -7.226562 6.464844 -7.246094 6.21875 -7.246094 C 5.757812 -7.226562 5.3125 -7.191406 4.851562 -7.136719 C 4.675781 -7.121094 4.5 -7.101562 4.339844 -7.085938 C 4.234375 -7.085938 4.164062 -7.121094 4.128906 -7.226562 C 4.003906 -7.492188 3.808594 -7.632812 3.558594 -7.617188 C 3.136719 -7.582031 3.046875 -7.316406 3.011719 -7.085938 C 2.976562 -6.996094 2.921875 -6.941406 2.832031 -6.925781 L 2.035156 -6.785156 C 1.71875 -6.730469 1.382812 -6.675781 1.0625 -6.640625 C 0.621094 -6.589844 0.371094 -6.339844 0.40625 -5.988281 C 0.476562 -5.667969 0.851562 -5.472656 1.257812 -5.527344 C 1.382812 -5.542969 1.503906 -5.5625 1.628906 -5.597656 C 1.683594 -5.613281 1.753906 -5.632812 1.789062 -5.632812 C 2.054688 -5.6875 2.300781 -5.722656 2.585938 -5.757812 L 2.761719 -5.773438 C 2.871094 -5.792969 2.941406 -5.738281 2.957031 -5.613281 C 2.957031 -5.4375 2.957031 -5.261719 2.957031 -5.066406 C 2.941406 -4.179688 2.941406 -3.292969 2.957031 -2.425781 C 2.957031 -1.824219 2.976562 -1.222656 3.011719 -0.601562 C 3.011719 -0.335938 3.207031 -0.140625 3.488281 -0.0898438 C 3.773438 -0.0351562 4.074219 -0.160156 4.179688 -0.390625 C 4.25 -0.511719 4.269531 -0.601562 4.269531 -0.851562 C 4.269531 -1.097656 4.25 -1.363281 4.234375 -1.613281 C 4.214844 -2 4.199219 -2.390625 4.199219 -2.78125 C 4.179688 -3.207031 4.199219 -3.632812 4.199219 -4.054688 L 4.199219 -5.136719 C 4.199219 -5.347656 4.179688 -5.578125 4.199219 -5.792969 C 4.199219 -5.898438 4.25 -5.953125 4.355469 -5.96875 C 4.570312 -5.988281 4.765625 -6.003906 4.941406 -6.039062 C 5.421875 -6.074219 5.914062 -6.109375 6.394531 -6.164062 C 6.90625 -6.234375 7.15625 -6.625 6.890625 -6.980469 Z M 6.890625 -6.980469 "/></g></g></g><g fill="#092a0b" fill-opacity="1"><g transform="translate(175.179483, 268.788158)"><g><path d="M 2.285156 0 C 2.871094 0 3.046875 -0.355469 3.046875 -0.9375 C 3.046875 -1.59375 2.941406 -1.613281 2.941406 -3.0625 C 2.941406 -3.84375 2.992188 -4.800781 3.082031 -5.242188 C 3.152344 -5.597656 3.222656 -5.808594 3.222656 -5.96875 C 3.222656 -6.394531 2.816406 -6.75 2.445312 -6.75 C 1.949219 -6.75 1.753906 -6.269531 1.789062 -5.738281 C 1.769531 -4.78125 1.628906 -3.648438 1.628906 -2.675781 C 1.628906 -0.707031 1.664062 0 2.285156 0 Z M 2.285156 0 "/></g></g></g><g fill="#092a0b" fill-opacity="1"><g transform="translate(180.970432, 268.788158)"><g><path d="M 7.792969 -7.136719 C 7.597656 -7.296875 7.351562 -7.296875 7.121094 -7.15625 C 6.871094 -7.03125 6.785156 -6.820312 6.835938 -6.535156 L 6.855469 -6.535156 C 6.855469 -6.535156 6.890625 -6.445312 6.890625 -6.410156 C 6.890625 -6.410156 6.890625 -6.394531 6.890625 -6.394531 C 6.890625 -6.109375 6.871094 -5.828125 6.835938 -5.527344 C 6.800781 -5.03125 6.75 -4.375 6.660156 -2.621094 C 6.640625 -2.445312 6.535156 -2.410156 6.445312 -2.550781 C 5.878906 -3.347656 5.171875 -4.375 4.445312 -5.457031 C 4.394531 -5.542969 4.304688 -5.648438 4.25 -5.757812 C 3.914062 -6.234375 3.613281 -6.730469 3.1875 -7.191406 C 2.992188 -7.421875 2.710938 -7.546875 2.390625 -7.472656 C 2.125 -7.402344 1.914062 -7.191406 1.878906 -6.90625 C 1.878906 -6.90625 1.808594 -6.410156 1.808594 -6.359375 L 1.699219 -4.234375 C 1.648438 -3.257812 1.578125 -2.285156 1.613281 -1.292969 C 1.628906 -1.027344 1.628906 -0.78125 1.628906 -0.511719 C 1.628906 -0.195312 1.734375 0.0351562 2.074219 0.0898438 C 2.496094 0.140625 2.886719 -0.125 2.886719 -0.707031 C 2.886719 -0.992188 2.851562 -1.914062 2.871094 -2.375 C 2.90625 -3.242188 2.976562 -4.089844 3.046875 -4.960938 C 3.046875 -5.117188 3.171875 -5.152344 3.257812 -5.011719 C 4.019531 -3.859375 4.800781 -2.691406 5.578125 -1.539062 C 6.09375 -0.761719 6.234375 -0.53125 6.464844 -0.285156 C 6.800781 0.105469 7.296875 0.0195312 7.582031 -0.390625 C 7.667969 -0.550781 7.703125 -0.671875 7.742188 -0.957031 C 7.742188 -1.082031 8.058594 -2.976562 8.058594 -4.5 C 8.078125 -4.941406 8.09375 -5.382812 8.128906 -5.828125 C 8.148438 -6.039062 8.148438 -6.234375 8.164062 -6.445312 C 8.183594 -6.730469 8.078125 -6.925781 7.792969 -7.136719 Z M 7.792969 -7.136719 "/></g></g></g><g fill="#092a0b" fill-opacity="1"><g transform="translate(191.702068, 268.788158)"><g><path d="M 1.3125 0.425781 C 1.558594 0.425781 1.753906 0.300781 1.878906 0.0703125 C 2 -0.210938 2.160156 -0.851562 2.285156 -1.3125 L 2.339844 -1.539062 C 2.355469 -1.628906 2.425781 -1.699219 2.53125 -1.699219 L 3.328125 -1.699219 C 4.054688 -1.699219 4.925781 -1.699219 5.5625 -1.734375 C 5.667969 -1.753906 5.738281 -1.699219 5.773438 -1.613281 C 5.828125 -1.417969 5.863281 -1.238281 5.878906 -1.046875 C 5.898438 -0.972656 5.878906 -0.886719 5.878906 -0.78125 L 5.878906 -0.476562 C 5.878906 -0.125 6.179688 0.125 6.589844 0.125 C 7.015625 0.125 7.28125 -0.195312 7.191406 -0.621094 C 6.605469 -4.515625 5.792969 -7.121094 4.800781 -7.582031 C 4.605469 -7.6875 4.375 -7.742188 4.128906 -7.742188 C 3.703125 -7.742188 3.328125 -7.527344 3.046875 -7.136719 C 2.320312 -6.109375 1.984375 -4.851562 1.382812 -2.90625 C 1.363281 -2.816406 1.3125 -2.761719 1.238281 -2.710938 C 1.027344 -2.585938 0.957031 -2.496094 0.972656 -2.339844 C 0.972656 -2.265625 1.007812 -2.179688 1.0625 -2.035156 C 1.097656 -1.964844 1.117188 -1.929688 1.117188 -1.914062 C 1.117188 -1.878906 0.867188 -0.886719 0.742188 -0.40625 C 0.691406 -0.265625 0.636719 -0.0195312 0.636719 -0.0195312 C 0.671875 0.246094 0.957031 0.425781 1.3125 0.425781 Z M 2.761719 -3.027344 C 3.101562 -4.039062 3.367188 -5.117188 3.949219 -6.164062 C 4.074219 -6.394531 4.304688 -6.410156 4.445312 -6.179688 C 4.835938 -5.507812 5.207031 -4.375 5.492188 -3.0625 C 5.507812 -2.941406 5.457031 -2.871094 5.332031 -2.851562 C 4.835938 -2.832031 4.355469 -2.832031 3.859375 -2.832031 C 3.542969 -2.832031 3.207031 -2.832031 2.90625 -2.816406 C 2.78125 -2.816406 2.726562 -2.90625 2.761719 -3.027344 Z M 2.761719 -3.027344 "/></g></g></g><g fill="#092a0b" fill-opacity="1"><g transform="translate(200.521185, 268.788158)"><g><path d="M 6.890625 -6.980469 C 6.75 -7.226562 6.464844 -7.246094 6.21875 -7.246094 C 5.757812 -7.226562 5.3125 -7.191406 4.851562 -7.136719 C 4.675781 -7.121094 4.5 -7.101562 4.339844 -7.085938 C 4.234375 -7.085938 4.164062 -7.121094 4.128906 -7.226562 C 4.003906 -7.492188 3.808594 -7.632812 3.558594 -7.617188 C 3.136719 -7.582031 3.046875 -7.316406 3.011719 -7.085938 C 2.976562 -6.996094 2.921875 -6.941406 2.832031 -6.925781 L 2.035156 -6.785156 C 1.71875 -6.730469 1.382812 -6.675781 1.0625 -6.640625 C 0.621094 -6.589844 0.371094 -6.339844 0.40625 -5.988281 C 0.476562 -5.667969 0.851562 -5.472656 1.257812 -5.527344 C 1.382812 -5.542969 1.503906 -5.5625 1.628906 -5.597656 C 1.683594 -5.613281 1.753906 -5.632812 1.789062 -5.632812 C 2.054688 -5.6875 2.300781 -5.722656 2.585938 -5.757812 L 2.761719 -5.773438 C 2.871094 -5.792969 2.941406 -5.738281 2.957031 -5.613281 C 2.957031 -5.4375 2.957031 -5.261719 2.957031 -5.066406 C 2.941406 -4.179688 2.941406 -3.292969 2.957031 -2.425781 C 2.957031 -1.824219 2.976562 -1.222656 3.011719 -0.601562 C 3.011719 -0.335938 3.207031 -0.140625 3.488281 -0.0898438 C 3.773438 -0.0351562 4.074219 -0.160156 4.179688 -0.390625 C 4.25 -0.511719 4.269531 -0.601562 4.269531 -0.851562 C 4.269531 -1.097656 4.25 -1.363281 4.234375 -1.613281 C 4.214844 -2 4.199219 -2.390625 4.199219 -2.78125 C 4.179688 -3.207031 4.199219 -3.632812 4.199219 -4.054688 L 4.199219 -5.136719 C 4.199219 -5.347656 4.179688 -5.578125 4.199219 -5.792969 C 4.199219 -5.898438 4.25 -5.953125 4.355469 -5.96875 C 4.570312 -5.988281 4.765625 -6.003906 4.941406 -6.039062 C 5.421875 -6.074219 5.914062 -6.109375 6.394531 -6.164062 C 6.90625 -6.234375 7.15625 -6.625 6.890625 -6.980469 Z M 6.890625 -6.980469 "/></g></g></g><g fill="#092a0b" fill-opacity="1"><g transform="translate(208.933003, 268.788158)"><g><path d="M 2.285156 0 C 2.871094 0 3.046875 -0.355469 3.046875 -0.9375 C 3.046875 -1.59375 2.941406 -1.613281 2.941406 -3.0625 C 2.941406 -3.84375 2.992188 -4.800781 3.082031 -5.242188 C 3.152344 -5.597656 3.222656 -5.808594 3.222656 -5.96875 C 3.222656 -6.394531 2.816406 -6.75 2.445312 -6.75 C 1.949219 -6.75 1.753906 -6.269531 1.789062 -5.738281 C 1.769531 -4.78125 1.628906 -3.648438 1.628906 -2.675781 C 1.628906 -0.707031 1.664062 0 2.285156 0 Z M 2.285156 0 "/></g></g></g><g fill="#092a0b" fill-opacity="1"><g transform="translate(214.723952, 268.788158)"><g><path d="M 4.464844 -0.0195312 C 6.730469 -0.0195312 8.234375 -1.453125 8.21875 -3.578125 C 8.21875 -5.171875 6.800781 -6.714844 5.226562 -6.855469 C 5.136719 -6.871094 5.082031 -6.890625 4.996094 -6.925781 C 4.871094 -6.996094 4.710938 -7.050781 4.535156 -7.050781 C 4.304688 -7.050781 4.164062 -7.015625 4.019531 -6.980469 C 2.074219 -6.394531 1.097656 -5.136719 1.097656 -3.1875 C 1.117188 -1.433594 2.621094 -0.0195312 4.464844 -0.0195312 Z M 4.746094 -1.097656 C 3.382812 -1.097656 2.425781 -2.035156 2.410156 -3.417969 C 2.410156 -4.394531 2.886719 -5.613281 4.355469 -5.898438 C 4.445312 -5.914062 4.515625 -5.898438 4.585938 -5.863281 C 4.710938 -5.828125 4.835938 -5.792969 4.941406 -5.773438 C 5.046875 -5.757812 5.082031 -5.757812 5.152344 -5.738281 C 6.179688 -5.527344 6.90625 -4.675781 6.960938 -3.59375 C 6.996094 -2.25 5.988281 -1.097656 4.746094 -1.097656 Z M 4.746094 -1.097656 "/></g></g></g><g fill="#092a0b" fill-opacity="1"><g transform="translate(225.048285, 268.788158)"><g><path d="M 7.792969 -7.136719 C 7.597656 -7.296875 7.351562 -7.296875 7.121094 -7.15625 C 6.871094 -7.03125 6.785156 -6.820312 6.835938 -6.535156 L 6.855469 -6.535156 C 6.855469 -6.535156 6.890625 -6.445312 6.890625 -6.410156 C 6.890625 -6.410156 6.890625 -6.394531 6.890625 -6.394531 C 6.890625 -6.109375 6.871094 -5.828125 6.835938 -5.527344 C 6.800781 -5.03125 6.75 -4.375 6.660156 -2.621094 C 6.640625 -2.445312 6.535156 -2.410156 6.445312 -2.550781 C 5.878906 -3.347656 5.171875 -4.375 4.445312 -5.457031 C 4.394531 -5.542969 4.304688 -5.648438 4.25 -5.757812 C 3.914062 -6.234375 3.613281 -6.730469 3.1875 -7.191406 C 2.992188 -7.421875 2.710938 -7.546875 2.390625 -7.472656 C 2.125 -7.402344 1.914062 -7.191406 1.878906 -6.90625 C 1.878906 -6.90625 1.808594 -6.410156 1.808594 -6.359375 L 1.699219 -4.234375 C 1.648438 -3.257812 1.578125 -2.285156 1.613281 -1.292969 C 1.628906 -1.027344 1.628906 -0.78125 1.628906 -0.511719 C 1.628906 -0.195312 1.734375 0.0351562 2.074219 0.0898438 C 2.496094 0.140625 2.886719 -0.125 2.886719 -0.707031 C 2.886719 -0.992188 2.851562 -1.914062 2.871094 -2.375 C 2.90625 -3.242188 2.976562 -4.089844 3.046875 -4.960938 C 3.046875 -5.117188 3.171875 -5.152344 3.257812 -5.011719 C 4.019531 -3.859375 4.800781 -2.691406 5.578125 -1.539062 C 6.09375 -0.761719 6.234375 -0.53125 6.464844 -0.285156 C 6.800781 0.105469 7.296875 0.0195312 7.582031 -0.390625 C 7.667969 -0.550781 7.703125 -0.671875 7.742188 -0.957031 C 7.742188 -1.082031 8.058594 -2.976562 8.058594 -4.5 C 8.078125 -4.941406 8.09375 -5.382812 8.128906 -5.828125 C 8.148438 -6.039062 8.148438 -6.234375 8.164062 -6.445312 C 8.183594 -6.730469 8.078125 -6.925781 7.792969 -7.136719 Z M 7.792969 -7.136719 "/></g></g></g></svg>